<?xml version="1.0" encoding="UTF-8" standalone="no"?><!DOCTYPE svg PUBLIC "-//W3C//DTD SVG 1.1//EN" "http://www.w3.org/Graphics/SVG/1.1/DTD/svg11.dtd"><svg width="100%" height="100%" viewBox="0 0 64 64" version="1.1" xmlns="http://www.w3.org/2000/svg" xmlns:xlink="http://www.w3.org/1999/xlink" xml:space="preserve" xmlns:serif="http://www.serif.com/" style="fill-rule:evenodd;clip-rule:evenodd;stroke-linejoin:round;stroke-miterlimit:2;"><g id="BouncePad"><path d="M29.739,34.421c0.926,2.008 0.784,2.052 1.662,4.097c2.222,5.179 3.985,1.503 6.125,0.009c0.752,-0.525 5.343,-3.731 10.91,-1.9c3.382,1.112 2.704,4.291 2.047,4.667c-4.562,2.613 -7.725,-3.912 -14.841,7.393c-1.345,2.137 -1.913,3.789 -3.238,3.916c-3.147,0.3 -1.752,-4.082 -7.685,-17.34c-0.147,-0.329 -1.436,-3.209 -1.213,-4.407c0.171,-0.918 1.892,-2.245 3.355,-1.468c0.82,0.435 2.687,4.606 2.878,5.034Z" style="fill:#ffe063;fill-opacity:0.95;"/><path d="M14.003,14.175c0.359,-0.313 0.517,-0.864 0.876,-1.177c1.655,-1.441 3.168,-1.567 3.467,-1.592c5.36,-0.447 7.784,5.856 6.678,9.34c-2.28,7.183 -10.61,6.187 -12.254,0.204c-0.965,-3.513 -0.385,-3.601 1.233,-6.775l3.404,6.017c0.348,0.051 0.573,0.526 0.92,0.577c0.233,0.034 2.375,0.349 2.439,-1.868c0.077,-2.71 -2.265,-2.248 -2.515,-2.199c-1.322,0.261 -1.245,1.948 -1.236,2.153c0.021,0.469 0.371,0.867 0.392,1.336l-3.404,-6.017Z" style="fill:#ffe063;fill-opacity:0.96;"/></g></svg>