<?xml version="1.0" encoding="UTF-8" standalone="no"?><!DOCTYPE svg PUBLIC "-//W3C//DTD SVG 1.1//EN" "http://www.w3.org/Graphics/SVG/1.1/DTD/svg11.dtd"><svg width="100%" height="100%" viewBox="0 0 64 64" version="1.1" xmlns="http://www.w3.org/2000/svg" xmlns:xlink="http://www.w3.org/1999/xlink" xml:space="preserve" xmlns:serif="http://www.serif.com/" style="fill-rule:evenodd;clip-rule:evenodd;stroke-linecap:round;stroke-linejoin:round;stroke-miterlimit:1.5;"><circle cx="32" cy="32" r="18.444" style="fill:none;stroke:#ffe063;stroke-width:3.75px;"/><path d="M30.393,33.446l-0.467,-6.997c-0.088,-1.363 -0.131,-2.342 -0.131,-2.936c0,-0.808 0.212,-1.439 0.635,-1.892c0.424,-0.453 0.981,-0.679 1.673,-0.679c0.838,0 1.397,0.29 1.68,0.869c0.282,0.579 0.424,1.415 0.424,2.505c0,0.643 -0.034,1.295 -0.102,1.957l-0.628,7.202c-0.068,0.857 -0.214,1.514 -0.438,1.972c-0.224,0.458 -0.594,0.687 -1.11,0.687c-0.526,0 -0.891,-0.222 -1.096,-0.665c-0.205,-0.443 -0.351,-1.117 -0.438,-2.023Zm1.621,9.612c-0.594,0 -1.113,-0.192 -1.556,-0.577c-0.443,-0.385 -0.665,-0.923 -0.665,-1.614c0,-0.604 0.212,-1.117 0.635,-1.541c0.424,-0.424 0.942,-0.635 1.556,-0.635c0.614,0 1.137,0.212 1.57,0.635c0.433,0.424 0.65,0.937 0.65,1.541c0,0.682 -0.219,1.217 -0.657,1.607c-0.438,0.39 -0.95,0.584 -1.534,0.584Z" style="fill:#ffe063;fill-rule:nonzero;stroke:#ffe063;stroke-width:1px;stroke-linecap:butt;stroke-miterlimit:2;"/></svg>