<?xml version="1.0" encoding="UTF-8" standalone="no"?><!DOCTYPE svg PUBLIC "-//W3C//DTD SVG 1.1//EN" "http://www.w3.org/Graphics/SVG/1.1/DTD/svg11.dtd"><svg width="100%" height="100%" viewBox="0 0 64 64" version="1.1" xmlns="http://www.w3.org/2000/svg" xmlns:xlink="http://www.w3.org/1999/xlink" xml:space="preserve" xmlns:serif="http://www.serif.com/" style="fill-rule:evenodd;clip-rule:evenodd;stroke-linejoin:round;stroke-miterlimit:2;"><path id="Platform" d="M15.254,38.36l-0.045,0c-2.111,0 -3.825,-1.714 -3.825,-3.825l0,-7.651c0,-2.111 1.714,-3.825 3.825,-3.825l33.581,0c2.111,0 3.825,1.714 3.825,3.825l0,7.651c0,1.948 -1.459,3.558 -3.343,3.795l0,1.321c0,0.713 -0.579,1.291 -1.291,1.291l-2.582,0c-0.713,0 -1.291,-0.579 -1.291,-1.291l0,-1.291l-23.691,0l0,1.291c0,0.713 -0.579,1.291 -1.291,1.291l-2.582,0c-0.713,0 -1.291,-0.579 -1.291,-1.291l-0,-1.291Z" style="fill:#ffe063;"/></svg>