<?xml version="1.0" encoding="UTF-8" standalone="no"?><!DOCTYPE svg PUBLIC "-//W3C//DTD SVG 1.1//EN" "http://www.w3.org/Graphics/SVG/1.1/DTD/svg11.dtd"><svg width="100%" height="100%" viewBox="0 0 64 64" version="1.1" xmlns="http://www.w3.org/2000/svg" xmlns:xlink="http://www.w3.org/1999/xlink" xml:space="preserve" xmlns:serif="http://www.serif.com/" style="fill-rule:evenodd;clip-rule:evenodd;stroke-linejoin:round;stroke-miterlimit:2;"><path id="Item" d="M51.447,28.172l0,7.293c0,2.012 -1.634,3.646 -3.646,3.646l-31.602,0c-2.012,0 -3.646,-1.634 -3.646,-3.646l0,-7.293c0,-2.012 1.634,-3.646 3.646,-3.646l31.602,0c2.012,0 3.646,1.634 3.646,3.646Zm-17.759,-15.944l0,9.656c0,0.466 -0.378,0.844 -0.844,0.844l-1.688,0c-0.466,0 -0.844,-0.378 -0.844,-0.844l0,-9.656c0,-0.466 0.378,-0.844 0.844,-0.844l1.688,0c0.466,0 0.844,0.378 0.844,0.844Zm0,29.888l0,9.656c0,0.466 -0.378,0.844 -0.844,0.844l-1.688,0c-0.466,0 -0.844,-0.378 -0.844,-0.844l0,-9.656c0,-0.466 0.378,-0.844 0.844,-0.844l1.688,0c0.466,0 0.844,0.378 0.844,0.844Z" style="fill:#ffe063;"/></svg>