<?xml version="1.0" encoding="UTF-8" standalone="no"?><!DOCTYPE svg PUBLIC "-//W3C//DTD SVG 1.1//EN" "http://www.w3.org/Graphics/SVG/1.1/DTD/svg11.dtd"><svg width="100%" height="100%" viewBox="0 0 64 64" version="1.1" xmlns="http://www.w3.org/2000/svg" xmlns:xlink="http://www.w3.org/1999/xlink" xml:space="preserve" xmlns:serif="http://www.serif.com/" style="fill-rule:evenodd;clip-rule:evenodd;stroke-linejoin:round;stroke-miterlimit:2;"><g id="Restart"><path d="M40.997,45.926c1.261,-1.129 4.199,-2.361 6.014,-8.793c0.876,-3.105 -0.063,-9.744 -5.973,-13.697c-4.029,-2.695 -5.701,-1.734 -6.129,-1.488c-0.877,0.504 -1.599,3.589 -3.898,3.543c-1.672,-0.034 -2.873,-1.598 -3.808,-2.46c-0.89,-0.821 -0.875,-0.799 -1.746,-1.619c-3.863,-3.639 -1.684,-4.427 2.228,-8.006c5.834,-5.337 5.812,1.469 7.241,2.451c0.622,0.428 10.923,2.044 15.34,10.149c9.591,17.6 -13.115,30.492 -15.338,25.275c-1.075,-2.522 2.505,-3.701 6.07,-5.355Z" style="fill:#ffe063;"/><path d="M14.278,25.492c0.171,-0.254 1.848,-2.747 2.521,-2.942c2.162,-0.625 2.999,0.386 3.153,0.572c2.195,2.651 -4.378,5.639 -2.829,13.944c1.672,8.968 10.524,10.547 11.511,11.648c0.222,0.248 2.417,2.698 -1.212,3.833c-3.313,1.036 -23.413,-9.786 -13.144,-27.056Z" style="fill:#ffe063;"/></g></svg>