# Blender 5.0.0
# www.blender.org
mtllib Checkpoint.mtl
o Checkpoint
v -0.083459 0.000000 -0.366515
v -0.083459 0.215432 -0.296517
v -0.083459 0.348576 -0.113259
v -0.083459 0.348576 0.113259
v -0.083459 0.215432 0.296517
v -0.083459 -0.000000 0.366515
v -0.083459 -0.215432 0.296516
v -0.083459 -0.348576 0.113259
v -0.083459 -0.348576 -0.113259
v -0.083459 -0.215432 -0.296517
v 0.014294 0.126613 0.190758
v 0.002189 0.141598 0.187360
v -0.009916 0.126613 0.190758
v 0.014294 -0.234440 0.023031
v -0.009916 -0.234440 0.023031
v -0.009916 -0.234440 0.000224
v 0.014294 -0.234440 0.000224
v 0.002189 0.141598 -0.164105
v 0.014294 0.126613 -0.167504
v -0.009916 0.126613 -0.167504
v 0.067630 0.015054 -0.344980
v 0.067630 -0.015054 -0.344980
v 0.083459 0.000000 -0.366515
v -0.067630 0.015054 -0.344980
v -0.083459 0.000000 -0.366515
v -0.067630 -0.015054 -0.344980
v 0.067630 0.190595 -0.287943
v 0.083459 0.215432 -0.296516
v 0.067630 0.214953 -0.270246
v -0.067630 0.190595 -0.287943
v -0.067630 0.214953 -0.270246
v -0.083459 0.215432 -0.296517
v 0.067630 0.323443 -0.120922
v 0.083459 0.348576 -0.113259
v 0.067630 0.332747 -0.092287
v -0.067630 0.323443 -0.120922
v -0.067630 0.332747 -0.092287
v -0.083459 0.348576 -0.113259
v 0.067630 0.332747 0.092287
v 0.083459 0.348576 0.113259
v 0.067630 0.323443 0.120922
v -0.067630 0.332747 0.092287
v -0.067630 0.323443 0.120922
v -0.083459 0.348576 0.113259
v 0.067630 0.214953 0.270246
v 0.083459 0.215432 0.296517
v 0.067630 0.190595 0.287943
v -0.067630 0.214953 0.270246
v -0.067630 0.190595 0.287943
v -0.083459 0.215432 0.296516
v 0.067630 0.015054 0.344980
v 0.083459 -0.000000 0.366515
v 0.067630 -0.015054 0.344980
v -0.067630 0.015054 0.344980
v -0.067630 -0.015054 0.344980
v -0.083459 -0.000000 0.366515
v 0.067630 -0.190595 0.287943
v 0.083459 -0.215432 0.296517
v 0.067630 -0.214953 0.270246
v -0.067630 -0.190595 0.287943
v -0.067630 -0.214953 0.270246
v -0.083459 -0.215432 0.296516
v 0.067630 -0.323443 0.120922
v 0.083459 -0.348576 0.113259
v 0.067630 -0.332747 0.092287
v -0.067630 -0.323443 0.120922
v -0.067630 -0.332747 0.092287
v -0.083459 -0.348576 0.113259
v 0.067630 -0.332747 -0.092287
v 0.083459 -0.348576 -0.113259
v 0.067630 -0.323443 -0.120922
v -0.067630 -0.332747 -0.092287
v -0.067630 -0.323443 -0.120922
v -0.083459 -0.348576 -0.113259
v 0.067630 -0.214953 -0.270246
v 0.083459 -0.215432 -0.296516
v 0.067630 -0.190595 -0.287943
v -0.067630 -0.214953 -0.270246
v -0.067630 -0.190595 -0.287943
v -0.083459 -0.215432 -0.296517
v 0.083459 0.000000 -0.438854
v 0.067630 -0.015054 -0.450606
v 0.067630 0.015054 -0.450606
v 0.067630 0.252681 -0.373397
v 0.067630 0.277039 -0.355699
v 0.083459 0.257952 -0.355040
v -0.083459 0.257952 -0.355040
v -0.067630 0.277039 -0.355699
v -0.067630 0.252681 -0.373397
v -0.067630 0.015054 -0.450606
v -0.067630 -0.015054 -0.450606
v -0.083459 0.000000 -0.438854
v 0.067630 0.423900 -0.153562
v 0.067630 0.433204 -0.124927
v 0.083459 0.417375 -0.135613
v -0.083459 0.417375 -0.135613
v -0.067630 0.433204 -0.124928
v -0.067630 0.423900 -0.153562
v 0.067630 0.433204 0.124928
v 0.067630 0.423900 0.153562
v 0.083459 0.417375 0.135613
v -0.083459 0.417375 0.135613
v -0.067630 0.423900 0.153562
v -0.067630 0.433204 0.124928
v 0.067630 0.277039 0.355699
v 0.067630 0.252681 0.373397
v 0.083459 0.257952 0.355040
v -0.083459 0.257952 0.355040
v -0.067630 0.252680 0.373397
v -0.067630 0.277039 0.355699
v 0.067630 0.015054 0.450606
v 0.067630 -0.015054 0.450606
v 0.083459 -0.000000 0.438854
v -0.083459 -0.000000 0.438854
v -0.067630 -0.015054 0.450606
v -0.067630 0.015054 0.450606
v 0.067630 -0.252681 0.373397
v 0.067630 -0.277039 0.355699
v 0.083459 -0.257952 0.355040
v -0.083459 -0.257952 0.355040
v -0.067630 -0.277039 0.355699
v -0.067630 -0.252681 0.373397
v 0.067630 -0.423900 0.153562
v 0.067630 -0.433204 0.124928
v 0.083459 -0.417375 0.135613
v -0.083459 -0.417375 0.135613
v -0.067630 -0.433204 0.124927
v -0.067630 -0.423900 0.153562
v 0.067630 -0.433204 -0.124928
v 0.067630 -0.423900 -0.153562
v 0.083459 -0.417375 -0.135613
v -0.083459 -0.417375 -0.135613
v -0.067630 -0.423900 -0.153562
v -0.067630 -0.433204 -0.124928
v 0.067630 -0.277039 -0.355699
v 0.067630 -0.252680 -0.373397
v 0.083459 -0.257952 -0.355040
v -0.083459 -0.257952 -0.355040
v -0.067630 -0.252681 -0.373397
v -0.067630 -0.277039 -0.355699
v 0.194820 0.126613 0.023031
v 0.194820 0.126613 0.000224
v 0.191331 0.141598 0.011627
v -0.186953 0.141598 0.011627
v -0.190442 0.126613 0.000224
v -0.190442 0.126613 0.023031
vn -0.0000 0.2212 0.9752
vn -0.0000 -1.0000 -0.0000
vn -0.0000 0.2212 -0.9752
vn 0.8058 -0.0000 0.5923
vn -0.8058 -0.0000 0.5923
vn 0.8058 -0.3481 0.4791
vn -0.8058 -0.3481 0.4791
vn 0.8058 -0.5633 0.1830
vn -0.8058 -0.5633 0.1830
vn 0.8058 -0.5633 -0.1830
vn -0.8058 -0.5633 -0.1830
vn 0.8058 -0.3481 -0.4791
vn -0.8058 -0.3481 -0.4791
vn 0.8058 -0.0000 -0.5923
vn -0.8058 -0.0000 -0.5923
vn 0.8058 0.3481 -0.4791
vn -0.8058 0.3481 -0.4791
vn 0.8058 0.5633 -0.1830
vn -0.8058 0.5633 -0.1830
vn 0.8058 0.5633 0.1830
vn -0.8058 0.5633 0.1830
vn 0.8058 0.3481 0.4791
vn -0.8058 0.3481 0.4791
vn 0.5961 -0.0000 -0.8029
vn 0.5961 0.4719 -0.6496
vn -0.5961 0.4719 -0.6496
vn -0.5961 -0.0000 -0.8029
vn 0.5961 0.7636 -0.2481
vn -0.5961 0.7636 -0.2481
vn 0.5961 0.7636 0.2481
vn -0.5961 0.7636 0.2481
vn 0.5961 0.4719 0.6496
vn -0.5961 0.4719 0.6496
vn 0.5961 -0.0000 0.8029
vn -0.5961 -0.0000 0.8029
vn 0.5961 -0.4719 0.6496
vn -0.5961 -0.4719 0.6496
vn 0.5961 -0.7636 0.2481
vn -0.5961 -0.7636 0.2481
vn 0.5961 -0.7636 -0.2481
vn -0.5961 -0.7636 -0.2481
vn 0.5961 -0.4719 -0.6496
vn -0.5961 -0.4719 -0.6496
vn 0.9739 0.2268 -0.0000
vn -0.9739 0.2268 -0.0000
vn -0.0000 -0.4213 0.9069
vn 0.7071 0.2185 -0.6725
vn -0.7071 0.2185 -0.6725
vn -0.0000 -0.0000 -1.0000
vn -0.0000 0.5878 -0.8090
vn 0.7071 0.5721 -0.4156
vn -0.7071 0.5721 -0.4156
vn -0.0000 0.9511 -0.3090
vn 0.7071 0.7071 -0.0000
vn -0.7071 0.7071 -0.0000
vn -0.0000 0.9511 0.3090
vn 0.7071 0.5721 0.4156
vn -0.7071 0.5721 0.4156
vn -0.0000 0.5878 0.8090
vn 0.7071 0.2185 0.6725
vn -0.7071 0.2185 0.6725
vn -0.0000 -0.0000 1.0000
vn 0.7071 -0.2185 0.6725
vn -0.7071 -0.2185 0.6725
vn -0.0000 -0.5878 0.8090
vn 0.7071 -0.5721 0.4156
vn -0.7071 -0.5721 0.4156
vn -0.0000 -0.9511 0.3090
vn 0.7071 -0.7071 -0.0000
vn -0.7071 -0.7071 -0.0000
vn -0.0000 -0.9511 -0.3090
vn 0.7071 -0.5721 -0.4156
vn -0.7071 -0.5721 -0.4156
vn -0.0000 -0.5878 -0.8090
vn 0.7071 -0.2185 -0.6725
vn -0.7071 -0.2185 -0.6725
vn -0.5534 0.5822 0.5957
vn -0.5534 0.5822 -0.5957
vn 0.5534 0.5822 0.5957
vn -0.0000 -0.4213 -0.9069
vn -0.8944 -0.4472 -0.0000
vn 0.8944 -0.4472 -0.0000
vn 0.5534 0.5822 -0.5957
vn 0.6444 -0.3222 0.6935
vn -0.6444 -0.3222 0.6935
vn -0.0000 1.0000 -0.0000
vn 0.6444 -0.3222 -0.6935
vn -0.6444 -0.3222 -0.6935
vn -0.0000 -0.3090 0.9511
vn 1.0000 -0.0000 -0.0000
vn -0.0000 0.3090 0.9511
vn -0.9138 -0.0000 0.4061
vn -0.0000 -0.8090 0.5878
vn -1.0000 -0.0000 -0.0000
vn -0.0000 -0.8090 -0.5878
vn -0.0000 -0.3090 -0.9511
vn -0.0000 0.3090 -0.9511
vn -0.0000 0.8090 -0.5878
vn -0.0000 0.8090 0.5878
vn -0.9923 -0.0000 0.1240
vt 0.239452 0.508883
vt 0.239452 0.508883
vt 0.239452 0.508883
vt 0.918346 0.490079
vt 0.918346 0.490079
vt 0.918346 0.490079
vt 0.918346 0.490079
vt 0.918346 0.490079
vt 0.918346 0.490079
vt 0.918346 0.490079
vt 0.918346 0.490079
vt 0.918346 0.490079
vt 0.918346 0.490079
vt 0.918346 0.490079
vt 0.918346 0.490079
vt 0.918346 0.490079
vt 0.918346 0.490079
vt 0.239452 0.508883
vt 0.239452 0.508883
s 1
usemtl 
f 11/1/1 12/1/1 13/1/1
f 14/2/2 15/1/2 16/2/2 17/3/2
f 18/1/3 19/2/3 20/2/3
f 21/4/4 22/5/4 23/5/4
f 24/6/5 25/5/5 26/7/5
f 27/8/6 28/5/6 29/6/6
f 30/9/7 31/6/7 32/5/7
f 33/7/8 34/5/8 35/10/8
f 36/9/9 37/6/9 38/5/9
f 39/10/10 40/5/10 41/5/10
f 42/5/11 43/6/11 44/5/11
f 45/9/12 46/5/12 47/7/12
f 48/6/13 49/6/13 50/5/13
f 51/7/14 52/5/14 53/5/14
f 54/9/15 55/10/15 56/5/15
f 57/5/16 58/5/16 59/11/16
f 60/6/17 61/6/17 62/5/17
f 63/8/18 64/5/18 65/6/18
f 66/9/19 67/8/19 68/5/19
f 69/8/20 70/5/20 71/9/20
f 72/10/21 73/6/21 74/5/21
f 75/8/22 76/5/22 77/12/22
f 78/6/23 79/6/23 80/5/23
f 81/5/24 82/13/24 83/7/24
f 84/14/25 85/15/25 86/5/25
f 87/5/26 88/6/26 89/7/26
f 90/11/27 91/7/27 92/5/27
f 93/6/28 94/11/28 95/5/28
f 96/5/29 97/9/29 98/9/29
f 99/8/30 100/6/30 101/5/30
f 102/5/31 103/6/31 104/6/31
f 105/6/32 106/11/32 107/5/32
f 108/5/33 109/7/33 110/6/33
f 111/6/34 112/7/34 113/5/34
f 114/5/35 115/7/35 116/9/35
f 117/9/36 118/7/36 119/5/36
f 120/5/37 121/9/37 122/7/37
f 123/7/38 124/14/38 125/5/38
f 126/5/39 127/5/39 128/6/39
f 129/7/40 130/8/40 131/5/40
f 132/5/41 133/16/41 134/9/41
f 135/14/42 136/17/42 137/5/42
f 138/5/43 139/8/43 140/9/43
f 141/18/44 142/18/44 143/18/44
f 144/19/45 145/19/45 146/2/45
f 14/2/46 11/1/46 13/1/46 15/1/46
f 83/7/47 84/14/47 86/5/47 81/5/47
f 89/7/48 90/11/48 92/5/48 87/5/48
f 82/13/49 91/7/49 90/11/49 83/7/49
f 88/6/50 85/15/50 84/14/50 89/7/50
f 85/15/51 93/6/51 95/5/51 86/5/51
f 98/9/52 88/6/52 87/5/52 96/5/52
f 97/9/53 94/11/53 93/6/53 98/9/53
f 94/11/54 99/8/54 101/5/54 95/5/54
f 104/6/55 97/9/55 96/5/55 102/5/55
f 103/6/56 100/6/56 99/8/56 104/6/56
f 100/6/57 105/6/57 107/5/57 101/5/57
f 110/6/58 103/6/58 102/5/58 108/5/58
f 109/7/59 106/11/59 105/6/59 110/6/59
f 106/11/60 111/6/60 113/5/60 107/5/60
f 116/9/61 109/7/61 108/5/61 114/5/61
f 115/7/62 112/7/62 111/6/62 116/9/62
f 112/7/63 117/9/63 119/5/63 113/5/63
f 122/7/64 115/7/64 114/5/64 120/5/64
f 121/9/65 118/7/65 117/9/65 122/7/65
f 118/7/66 123/7/66 125/5/66 119/5/66
f 128/6/67 121/9/67 120/5/67 126/5/67
f 127/5/68 124/14/68 123/7/68 128/6/68
f 124/14/69 129/7/69 131/5/69 125/5/69
f 134/9/70 127/5/70 126/5/70 132/5/70
f 133/16/71 130/8/71 129/7/71 134/9/71
f 130/8/72 135/14/72 137/5/72 131/5/72
f 140/9/73 133/16/73 132/5/73 138/5/73
f 139/8/74 136/17/74 135/14/74 140/9/74
f 136/17/75 82/13/75 81/5/75 137/5/75
f 91/7/76 139/8/76 138/5/76 92/5/76
f 23/5/63 28/5/63 27/8/63 21/4/63
f 32/5/64 25/5/64 24/6/64 30/9/64
f 28/5/66 34/5/66 33/7/66 29/6/66
f 38/5/67 32/5/67 31/6/67 36/9/67
f 34/5/69 40/5/69 39/10/69 35/10/69
f 44/5/70 38/5/70 37/6/70 42/5/70
f 40/5/72 46/5/72 45/9/72 41/5/72
f 50/5/73 44/5/73 43/6/73 48/6/73
f 46/5/75 52/5/75 51/7/75 47/7/75
f 56/5/76 50/5/76 49/6/76 54/9/76
f 52/5/47 58/5/47 57/5/47 53/5/47
f 62/5/48 56/5/48 55/10/48 60/6/48
f 58/5/51 64/5/51 63/8/51 59/11/51
f 68/5/52 62/5/52 61/6/52 66/9/52
f 64/5/54 70/5/54 69/8/54 65/6/54
f 74/5/55 68/5/55 67/8/55 72/10/55
f 70/5/57 76/5/57 75/8/57 71/9/57
f 80/5/58 74/5/58 73/6/58 78/6/58
f 76/5/60 23/5/60 22/5/60 77/12/60
f 25/5/61 80/5/61 79/6/61 26/7/61
f 53/5/49 55/10/49 54/9/49 51/7/49
f 59/11/50 61/6/50 60/6/50 57/5/50
f 65/6/53 67/8/53 66/9/53 63/8/53
f 71/9/56 73/6/56 72/10/56 69/8/56
f 77/12/59 79/6/59 78/6/59 75/8/59
f 21/4/62 24/6/62 26/7/62 22/5/62
f 29/6/65 31/6/65 30/9/65 27/8/65
f 35/10/68 37/6/68 36/9/68 33/7/68
f 47/7/74 49/6/74 48/6/74 45/9/74
f 41/5/71 43/6/71 42/5/71 39/10/71
f 12/1/77 144/19/77 146/2/77 13/1/77
f 144/19/78 18/1/78 20/2/78 145/19/78
f 11/1/79 141/18/79 143/18/79 12/1/79
f 19/2/80 17/3/80 16/2/80 20/2/80
f 145/19/81 16/2/81 15/1/81 146/2/81
f 17/3/82 142/18/82 141/18/82 14/2/82
f 142/18/83 19/2/83 18/1/83 143/18/83
f 14/2/84 141/18/84 11/1/84
f 13/1/85 146/2/85 15/1/85
f 12/1/86 143/18/86 144/19/86
f 17/3/87 19/2/87 142/18/87
f 145/19/88 20/2/88 16/2/88
f 143/18/86 18/1/86 144/19/86
f 21/4/89 27/8/89 30/9/89 24/6/89
f 23/5/90 76/5/90 137/5/90 81/5/90
f 28/5/90 23/5/90 81/5/90 86/5/90
f 77/12/91 22/5/91 26/7/91 79/6/91
f 25/5/92 32/5/92 2/6/92 1/6/92
f 80/5/92 25/5/92 1/6/92 10/5/92
f 29/6/93 33/7/93 36/9/93 31/6/93
f 34/5/90 28/5/90 86/5/90 95/5/90
f 32/5/94 38/5/94 3/6/94 2/6/94
f 35/10/2 39/10/2 42/5/2 37/6/2
f 40/5/90 34/5/90 95/5/90 101/5/90
f 38/5/90 44/5/90 4/6/90 3/6/90
f 41/5/95 45/9/95 48/6/95 43/6/95
f 46/5/90 40/5/90 101/5/90 107/5/90
f 44/5/94 50/5/94 5/6/94 4/6/94
f 47/7/96 51/7/96 54/9/96 49/6/96
f 52/5/90 46/5/90 107/5/90 113/5/90
f 50/5/94 56/5/94 6/6/94 5/6/94
f 53/5/97 57/5/97 60/6/97 55/10/97
f 58/5/90 52/5/90 113/5/90 119/5/90
f 56/5/94 62/5/94 7/6/94 6/6/94
f 59/11/98 63/8/98 66/9/98 61/6/98
f 64/5/90 58/5/90 119/5/90 125/5/90
f 62/5/94 68/5/94 8/6/94 7/6/94
f 65/6/86 69/8/86 72/10/86 67/8/86
f 70/5/90 64/5/90 125/5/90 131/5/90
f 68/5/94 74/5/94 9/6/94 8/6/94
f 71/9/99 75/8/99 78/6/99 73/6/99
f 76/5/90 70/5/90 131/5/90 137/5/90
f 74/5/100 80/5/100 10/5/100 9/6/100
f 83/7/97 90/11/97 89/7/97 84/14/97
f 136/17/96 139/8/96 91/7/96 82/13/96
f 85/15/98 88/6/98 98/9/98 93/6/98
f 1/6/94 2/6/94 87/5/94 92/5/94
f 2/6/94 3/6/94 96/5/94 87/5/94
f 10/5/94 1/6/94 92/5/94 138/5/94
f 94/11/86 97/9/86 104/6/86 99/8/86
f 3/6/94 4/6/94 102/5/94 96/5/94
f 100/6/99 103/6/99 110/6/99 105/6/99
f 4/6/94 5/6/94 108/5/94 102/5/94
f 106/11/91 109/7/91 116/9/91 111/6/91
f 5/6/94 6/6/94 114/5/94 108/5/94
f 112/7/89 115/7/89 122/7/89 117/9/89
f 6/6/94 7/6/94 120/5/94 114/5/94
f 118/7/93 121/9/93 128/6/93 123/7/93
f 7/6/94 8/6/94 126/5/94 120/5/94
f 124/14/2 127/5/2 134/9/2 129/7/2
f 8/6/94 9/6/94 132/5/94 126/5/94
f 130/8/95 133/16/95 140/9/95 135/14/95
f 9/6/94 10/5/94 138/5/94 132/5/94
